<svg version="1.1" viewBox="0 0 100 100" xmlns="http://www.w3.org/2000/svg">
	<g transform="matrix(4.5752 0 0 4.5752 13.398 13.398)">
		<path d="m8 3c-2.75 0-5 2.25-5 5 0 1.783 0.958 3.363 2.375 4.25a3.4 3.4 0 0 1 0.531-0.188c0.229-1.816 1.72-3.25 3.594-3.25 1.003 0 1.839 0.474 2.5 1.126 0.175-0.034 0.308-0.126 0.5-0.126h0.125c0.224-0.566 0.375-1.169 0.375-1.812 0-2.75-2.25-5-5-5z" overflow="visible"/>
		<path d="m9.5 10a2.5 2.5 0 0 0-2.5 2.5c0 0.218 0.041 0.423 0.094 0.625a1.549 1.549 0 0 0-0.594-0.125 1.5 1.5 0 1 0 0 3h8a1.5 1.5 0 1 0 0-3 2 2 0 0 0-2-2c-0.316 0-0.61 0.088-0.875 0.219a2.47 2.47 0 0 0-2.125-1.219zm4.5-3c0.138 0.713 0.112 1.37 0 2l2-1zm-12 0a5.387 5.387 0 0 0 0 2l-2-1zm7-5a5.387 5.387 0 0 0-2 0l1-2zm-4.535 10.95a5.387 5.387 0 0 1-1.415-1.414l-0.707 2.12zm8.485-8.486a5.387 5.387 0 0 0-1.414-1.414l2.121-0.707zm-9.9 0a5.387 5.387 0 0 1 1.415-1.414l-2.122-0.707z" overflow="visible"/>
	</g>
</svg>
