<?xml version="1.0" standalone="no"?>
<!DOCTYPE svg PUBLIC "-//W3C//DTD SVG 20010904//EN"
 "http://www.w3.org/TR/2001/REC-SVG-20010904/DTD/svg10.dtd">
<svg version="1.0" xmlns="http://www.w3.org/2000/svg"
 width="700.000000pt" height="700.000000pt" viewBox="0 0 700.000000 700.000000"
 preserveAspectRatio="xMidYMid meet">
<metadata>
Created by potrace 1.11, written by Peter Selinger 2001-2013
</metadata>
<g transform="translate(0.000000,700.000000) scale(0.100000,-0.100000)"
fill="#000000" stroke="none">
<path d="M3338 5738 c-86 -172 -155 -314 -155 -315 1 0 36 5 77 12 106 19 437
13 542 -9 12 -3 15 1 10 13 -22 53 -307 611 -312 611 -4 0 -76 -141 -162 -312z"/>
<path d="M1692 5298 c3 -7 53 -159 113 -336 85 -257 110 -321 119 -310 7 7 39
46 72 87 90 114 198 217 335 322 l34 26 -40 12 c-22 7 -49 16 -60 21 -11 5
-119 41 -240 80 -121 39 -229 75 -240 80 -23 10 -86 30 -93 30 -2 0 -2 -6 0
-12z"/>
<path d="M4971 5200 c-178 -60 -326 -112 -330 -116 -3 -4 0 -9 7 -11 18 -7
146 -111 208 -170 48 -46 150 -162 205 -234 l26 -33 108 324 c59 179 110 331
113 338 2 6 0 12 -4 11 -5 0 -155 -50 -333 -109z"/>
<path d="M3269 5085 c-505 -79 -931 -378 -1176 -825 -71 -130 -145 -331 -160
-435 -2 -16 -6 -36 -9 -43 -13 -40 -19 -136 -18 -302 1 -207 17 -309 78 -488
110 -325 344 -633 617 -815 l55 -36 83 29 c45 15 84 30 86 32 4 3 10 34 21 96
11 64 65 216 104 295 162 319 432 534 779 619 129 32 362 31 485 -1 200 -52
351 -138 540 -305 16 -14 30 -26 31 -26 1 0 31 9 65 20 34 11 78 20 96 20 40
0 48 15 93 174 46 161 56 230 56 401 0 170 -4 214 -30 338 -121 578 -578 1061
-1145 1210 -52 14 -111 28 -130 31 -19 3 -46 9 -60 12 -54 13 -376 12 -461 -1z"/>
<path d="M1260 3663 c-168 -85 -306 -157 -308 -161 -1 -4 140 -78 314 -165
347 -174 318 -166 298 -77 -13 55 -13 387 -1 468 7 46 11 84 8 86 -4 1 -143
-67 -311 -151z"/>
<path d="M5426 3811 c-2 -3 2 -40 9 -81 17 -98 16 -354 -1 -461 -7 -46 -14
-85 -14 -86 0 -2 142 68 315 154 173 87 315 160 315 164 0 8 -620 316 -624
310z"/>
<path d="M3888 2855 c-1 -1 -25 -6 -51 -9 -91 -12 -213 -62 -305 -124 -160
-109 -277 -275 -328 -467 -26 -97 -25 -309 1 -377 7 -16 4 -17 -47 -2 -162 49
-357 3 -466 -109 -67 -68 -69 -71 -95 -123 -128 -253 -27 -547 229 -664 90
-42 91 -42 1474 -41 734 0 1344 2 1355 4 197 45 326 157 385 335 26 78 21 233
-10 311 -72 181 -245 304 -436 311 -6 0 -14 29 -17 68 -23 243 -203 461 -447
542 -127 42 -322 30 -434 -25 -30 -15 -32 -15 -46 7 -63 97 -189 214 -290 269
-58 32 -180 76 -234 86 -36 6 -233 13 -238 8z"/>
<path d="M1801 2028 c-61 -183 -109 -333 -108 -335 5 -5 667 219 667 226 0 3
-22 20 -48 38 -108 74 -248 211 -346 341 -26 34 -49 62 -51 62 -2 0 -53 -149
-114 -332z"/>
</g>
</svg>
